<svg xmlns="http://www.w3.org/2000/svg" xmlns:xlink="http://www.w3.org/1999/xlink" width="242.111" height="112.202" viewBox="0 0 242.111 112.202">
  <defs>
    <linearGradient id="linear-gradient" x1="0.146" y1="0.854" x2="0.854" y2="0.146" gradientUnits="objectBoundingBox">
      <stop offset="0" stop-color="#26282c" stop-opacity="0"/>
      <stop offset="1" stop-color="#141414"/>
    </linearGradient>
    <radialGradient id="radial-gradient" cx="0.5" cy="0.5" r="0.5" gradientTransform="translate(0)" gradientUnits="objectBoundingBox">
      <stop offset="0" stop-color="#935e92"/>
      <stop offset="0.41" stop-color="#674868" stop-opacity="0.596"/>
      <stop offset="0.976" stop-color="#26282c" stop-opacity="0"/>
    </radialGradient>
    <linearGradient id="linear-gradient-3" x1="0.272" y1="1.129" x2="0.732" y2="-0.26" gradientUnits="objectBoundingBox">
      <stop offset="0" stop-color="#26282c" stop-opacity="0"/>
      <stop offset="0.278" stop-color="#246768" stop-opacity="0.345"/>
      <stop offset="0.531" stop-color="#239b99" stop-opacity="0.627"/>
      <stop offset="0.743" stop-color="#22c0bd" stop-opacity="0.827"/>
      <stop offset="0.906" stop-color="#22d7d2" stop-opacity="0.953"/>
      <stop offset="1" stop-color="#22e0db"/>
    </linearGradient>
    <linearGradient id="linear-gradient-4" x1="20.794" y1="-13.118" x2="20.794" y2="-11.931" gradientUnits="objectBoundingBox">
      <stop offset="0" stop-color="#26282c"/>
      <stop offset="1" stop-color="#141414"/>
    </linearGradient>
    <linearGradient id="linear-gradient-5" x1="3.431" y1="-4.697" x2="4.506" y2="-5.264" xlink:href="#linear-gradient-4"/>
    <linearGradient id="linear-gradient-6" x1="-7.043" y1="16.855" x2="-6.134" y2="16.448" xlink:href="#linear-gradient-4"/>
    <linearGradient id="linear-gradient-7" x1="0" y1="0.5" x2="1" y2="0.5" xlink:href="#linear-gradient-4"/>
    <linearGradient id="linear-gradient-8" x1="0.5" y1="0" x2="0.5" y2="1" xlink:href="#linear-gradient-4"/>
    <linearGradient id="linear-gradient-9" x1="0.014" y1="0.5" x2="0.986" y2="0.5" gradientUnits="objectBoundingBox">
      <stop offset="0" stop-color="#141414"/>
      <stop offset="1" stop-color="#26282c"/>
    </linearGradient>
  </defs>
  <g id="Ilustração_Astronauta" data-name="Ilustração Astronauta" transform="translate(-104.715 -94.964)">
    <g id="Elipses">
      <circle id="Elipse_273" data-name="Elipse 273" cx="1.218" cy="1.218" r="1.218" transform="translate(146.123 122.201)" fill="#26282c"/>
      <circle id="Elipse_274" data-name="Elipse 274" cx="2.192" cy="2.192" r="2.192" transform="translate(307.855 127.072)" fill="#26282c" opacity="0.75"/>
      <circle id="Elipse_275" data-name="Elipse 275" cx="2.192" cy="2.192" r="2.192" transform="translate(104.715 151.917)" fill="#26282c" opacity="0.5"/>
      <circle id="Elipse_276" data-name="Elipse 276" cx="1.949" cy="1.949" r="1.949" transform="translate(263.525 184.068)" fill="#26282c"/>
      <circle id="Elipse_277" data-name="Elipse 277" cx="1.461" cy="1.461" r="1.461" transform="translate(343.904 161.173)" fill="#26282c" opacity="0.5"/>
    </g>
    <g id="Planeta2">
      <circle id="Planeta" cx="40.92" cy="40.92" r="40.92" transform="translate(193.863 110.51)" opacity="0.5" fill="url(#linear-gradient)"/>
      <path id="buraco3" d="M236.671,116.763c-7.066-1.455-15.185,6.016-6.3,7.449S246.412,118.768,236.671,116.763Z" fill="#26282c" opacity="0.75"/>
      <path id="buraco2" d="M264.531,168.943c3.035-3.007,2.014-9.46-1.605-5.551S260.348,173.088,264.531,168.943Z" fill="#26282c" opacity="0.2"/>
      <path id="burado1" d="M261.548,157.5c2.368-3.555-.877-9.992-3.636-5.435S258.283,162.4,261.548,157.5Z" fill="#26282c" opacity="0.75"/>
      <path id="_" data-name="?" d="M235.476,135.755a16.438,16.438,0,0,1,1.925-1.119,12.737,12.737,0,0,1,2.2-.846,12.938,12.938,0,0,1,2.5-.437,13.76,13.76,0,0,1,2.836.086,11.728,11.728,0,0,1,3.66,1.038,8.441,8.441,0,0,1,2.68,1.979,7.25,7.25,0,0,1,1.54,2.768,8.161,8.161,0,0,1,.237,3.4,8.418,8.418,0,0,1-.911,3.03,8.8,8.8,0,0,1-1.583,2.109,9.916,9.916,0,0,1-1.92,1.455l-1.922,1.107a13.9,13.9,0,0,0-1.581,1.044,2.436,2.436,0,0,0-.89,1.263l-.978,3.369-3.98-.505.087-3.89a3.142,3.142,0,0,1,.565-1.9,5.974,5.974,0,0,1,1.418-1.375,16.683,16.683,0,0,1,1.878-1.126,15.677,15.677,0,0,0,1.945-1.187,7.533,7.533,0,0,0,1.6-1.545,4.487,4.487,0,0,0,.841-2.2,3.532,3.532,0,0,0-.125-1.559,3.476,3.476,0,0,0-.737-1.267,4.01,4.01,0,0,0-1.26-.913,5.471,5.471,0,0,0-1.673-.475,7.607,7.607,0,0,0-2.31.006,8.441,8.441,0,0,0-1.662.459q-.695.282-1.178.52a1.513,1.513,0,0,1-.839.192,1.293,1.293,0,0,1-1.134-.861Zm.927,28.327a3.644,3.644,0,0,1,.447-1.354,3.45,3.45,0,0,1,.885-1.037,3.581,3.581,0,0,1,1.226-.61,3.544,3.544,0,0,1,1.448-.1,3.479,3.479,0,0,1,1.366.46,3.767,3.767,0,0,1,1.034.9,3.568,3.568,0,0,1-.639,5.039,3.6,3.6,0,0,1-2.66.691,3.7,3.7,0,0,1-1.379-.45,3.422,3.422,0,0,1-1.036-.885,3.473,3.473,0,0,1-.6-1.213A3.6,3.6,0,0,1,236.4,164.082Z" fill="#26282c"/>
    </g>
    <g id="Planeta1">
      <circle id="Planeta-2" data-name="Planeta" cx="16.478" cy="16.478" r="16.478" transform="translate(138.9 151.027)" opacity="0.5" fill="url(#linear-gradient)"/>
      <path id="buraco" d="M164.315,158.1c-2.147-2.558-7.241-2.178-4.428.893S167.275,161.622,164.315,158.1Z" fill="#26282c" opacity="0.75"/>
      <path id="_2" data-name="?" d="M150.558,166.345a7.049,7.049,0,0,1,.4-.839,5.3,5.3,0,0,1,1.308-1.549,5.737,5.737,0,0,1,.993-.642,4.887,4.887,0,0,1,1.5-.509,3.513,3.513,0,0,1,1.385.046,3.02,3.02,0,0,1,1.183.585,3.419,3.419,0,0,1,.885,1.111,3.549,3.549,0,0,1,.4,1.254,3.7,3.7,0,0,1-.045,1.1,4.116,4.116,0,0,1-.314.953q-.213.444-.4.835a6,6,0,0,0-.3.731,1.012,1.012,0,0,0-.006.643l.461,1.387-1.484.767-.89-1.354a1.316,1.316,0,0,1-.255-.786,2.434,2.434,0,0,1,.161-.806,6.627,6.627,0,0,1,.378-.83,6.435,6.435,0,0,0,.386-.868,3.125,3.125,0,0,0,.182-.906,1.862,1.862,0,0,0-.232-.954,1.476,1.476,0,0,0-.411-.506,1.449,1.449,0,0,0-.551-.26,1.7,1.7,0,0,0-.649-.015,2.285,2.285,0,0,0-.686.233,3.162,3.162,0,0,0-.791.548,3.454,3.454,0,0,0-.461.55c-.115.174-.208.326-.282.457a.629.629,0,0,1-.241.264.538.538,0,0,1-.593-.028Zm7.014,9.495a1.534,1.534,0,0,1-.168-.57,1.431,1.431,0,0,1,.059-.565,1.475,1.475,0,0,1,.276-.5,1.5,1.5,0,0,1,.472-.377,1.441,1.441,0,0,1,.578-.165,1.571,1.571,0,0,1,.566.062,1.441,1.441,0,0,1,.5.275,1.477,1.477,0,0,1,.373.463,1.437,1.437,0,0,1,.165.577,1.483,1.483,0,0,1-.069.565,1.542,1.542,0,0,1-.279.495,1.506,1.506,0,0,1-.471.37,1.539,1.539,0,0,1-.578.172,1.413,1.413,0,0,1-.565-.059,1.474,1.474,0,0,1-.493-.273A1.548,1.548,0,0,1,157.572,175.84Z" fill="#26282c"/>
    </g>
    <g id="Astronauta">
      <circle id="Luz_Roxa" data-name="Luz Roxa" cx="53.455" cy="53.455" r="53.455" transform="translate(146.405 94.964)" fill="url(#radial-gradient)"/>
      <path id="cordao" d="M129.313,206.243a25.522,25.522,0,0,1-16.636-6.493,1,1,0,1,1,1.319-1.5c5.924,5.2,13.82,7.219,20.607,5.265,7.024-2.022,12.352-8.032,15-16.923,3.411-11.443,12.013-12.247,19.6-12.957,6.855-.64,12.774-1.193,14.749-8.84a1,1,0,1,1,1.936.5c-2.326,9.008-9.531,9.681-16.5,10.332-7.636.713-14.848,1.387-17.872,11.536-2.852,9.567-8.663,16.057-16.364,18.274A21.116,21.116,0,0,1,129.313,206.243Z" transform="translate(-0.066 0.924)" fill="url(#linear-gradient-3)"/>
      <path id="Mala" d="M180.894,159.232c-2.256,3.564,1.835,7.4,4.735,9.3s5.743,3.31,8.743-2.279c.78-1.546-1.954-3.344-4.592-5.308S183.155,155.659,180.894,159.232Z" fill="#22e0db"/>
      <path id="Corpo" d="M179.206,156.644c4.986,7.114,19.054,16.831,25.324,6.8s-9.277-18.994-16.346-19.414S177.2,153.782,179.206,156.644Z" fill="url(#linear-gradient-4)"/>
      <path id="Braco2" d="M199.8,147.277s8.37-2.778,10.346-8.294-4.106-7.025-5.577-3.24-4.909,6.336-7.773,6.764S192.9,148.818,199.8,147.277Z" fill="url(#linear-gradient-5)"/>
      <path id="Braco1" d="M180.447,154.678c-5.254-2.584-13.05,3.813-11.481,9.619s7.478,5.375,7.368-.173,5.9-3.371,6.389-5.179S180.447,154.678,180.447,154.678Z" fill="url(#linear-gradient-6)"/>
      <path id="Perna2" d="M218.21,159.5c-.466,2.832-4.345,3.346-6.139,1.649a1.927,1.927,0,0,1-.378-.417c-1.911-2.686-5.16-.136-7.051-.465s-4.4-3.724-1.067-5.577c5.053-2.8,12.259-2.909,14.286,2.328A4.792,4.792,0,0,1,218.21,159.5Z" fill="url(#linear-gradient-7)"/>
      <path id="Pe2" d="M218.21,159.5c-.466,2.832-4.345,3.346-6.139,1.649C213.759,161.229,216.426,161.054,218.21,159.5Z" fill="#22e0db"/>
      <path id="Perna1" d="M208.58,176.183a4.245,4.245,0,0,1-6.411,3.269h-.01a4.317,4.317,0,0,1-1.008-.96c-3.947-5.2-3.23-7.711-4.529-10.833-1.474-3.521,3.433-4.054,4.917-2.832s1,2.967,3.928,5.557C207.881,172.517,208.706,174.544,208.58,176.183Z" fill="url(#linear-gradient-8)"/>
      <path id="pe1" d="M208.58,176.183a4.245,4.245,0,0,1-6.411,3.269C204.128,179.277,207,178.6,208.58,176.183Z" fill="#22e0db"/>
      <path id="Umbigo" d="M192,149.327A18.21,18.21,0,0,1,203.93,163.5" fill="none" stroke="#22e0db" stroke-miterlimit="10" stroke-width="0.5"/>
      <path id="Umbigo2" d="M197.715,152.571c-3.077,2.88,1.5,7.434,3.871,5.205C204.67,154.88,200.115,150.325,197.715,152.571Z" fill="#22e0db"/>
      <ellipse id="Capacete" cx="16.653" cy="14.873" rx="16.653" ry="14.873" transform="translate(162.92 137.098) rotate(-31.639)" fill="url(#linear-gradient-9)"/>
      <ellipse id="Capacete_vidro" data-name="Capacete vidro" cx="13.534" cy="12.087" rx="13.534" ry="12.087" transform="translate(171.449 137.347) rotate(-31.639)" fill="#22e0db"/>
    </g>
  </g>
</svg>
